<svg width="16" height="16" viewBox="0 0 16 16" fill="none" xmlns="http://www.w3.org/2000/svg">
<g clip-path="url(#clip0_23_1479)">
<path d="M0 2.56848C0 1.18777 1.11929 0.0684814 2.5 0.0684814H13.5C14.8807 0.0684814 16 1.18777 16 2.56848V13.5685C16 14.9492 14.8807 16.0685 13.5 16.0685H2.5C1.11929 16.0685 0 14.9492 0 13.5685V2.56848Z" fill="#FFA8CD"/>
<path d="M11.5515 2.95847H9.33281C9.33281 4.78346 8.21622 6.41867 6.51959 7.58667L5.85256 8.05387V2.95847H3.54688V13.1785H5.85256V8.11228L9.66634 13.1785H12.4796L8.81077 8.33129C10.4784 7.11949 11.566 5.23606 11.5515 2.95847Z" fill="#0B051D"/>
</g>
<defs>
<clipPath id="clip0_23_1479">
<rect width="16" height="16" fill="white" transform="translate(0 0.0684814)"/>
</clipPath>
</defs>
</svg>
